<svg xmlns="http://www.w3.org/2000/svg" viewBox="0 0 814.1469 463.8334"><defs><style>.cls-1{fill:#5e55e2;}</style></defs><g id="Layer_2" data-name="Layer 2"><g id="Layer_1-2" data-name="Layer 1"><line class="cls-1" x1="814.1469" y1="419.6773" x2="814.1469" y2="431.7271"/><path class="cls-1" d="M180.9438,0C75.95,0,11.9245,44.0186,11.9245,117.762a178.5316,178.5316,0,0,0,1.5236,21.5324H90.241a113.0956,113.0956,0,0,1-.7629-14.1006c0-40.9691,32.0137-62.6923,88.6093-62.6923,64.7858,0,96.7971,24.5819,96.7971,79.8424v26.1055H138.6419C40.3166,168.4494.6826,212.2772.6826,268.1076c0,71.6476,56.0211,111.8538,140.0551,111.8538,81.1752,0,125.1915-32.7744,137.1987-87.2719h.7606c0,29.9156-2.2866,48.2411-3.8125,66.1542h83.4641V149.7757C358.3486,52.9739,292.7976,0,180.9438,0Zm93.9407,225.8057c0,56.5933-44.7768,91.4657-116.9967,91.4657-50.6874,0-80.4122-19.2459-80.4122-52.7832,0-29.1549,20.7694-45.5444,68.5958-45.5444H274.8845Z"/><path class="cls-1" d="M663.6129,0C577.8646,0,530.2267,37.92,510.2178,104.2336h-.7629l2.8587-98.3254H428.8518V358.8437h83.4618V195.8877c0-80.4122,46.3051-124.4308,119.2856-124.4308,66.3116,0,99.0883,32.7767,99.0883,90.8936V358.8437h83.4594V143.8675C814.1469,52.9739,756.6,0,663.6129,0Z"/><path class="cls-1" d="M1.4887,463.8334,0,444.8527c3.2114-.2526,326.8412-25.1754,814.1469-25.1754v12.05C327.0629,431.7271,4.7,463.586,1.4887,463.8334Z"/></g></g></svg>