<svg xmlns="http://www.w3.org/2000/svg" viewBox="0 0 1257.4746 300.3719"><defs><style>.cls-1{fill:#191919;}</style></defs><g id="Layer_2" data-name="Layer 2"><g id="Layer_1-2" data-name="Layer 1"><path class="cls-1" d="M77.4135,60.9378c-44.92,0-72.3118,18.8326-72.3118,50.3824a76.38,76.38,0,0,0,.6518,9.2122H38.608a48.3844,48.3844,0,0,1-.3264-6.0327c0-17.5279,13.6964-26.8217,37.91-26.8217,27.7173,0,41.4128,10.5169,41.4128,34.1591v11.1687H59.3154c-42.0667,0-59.0233,18.751-59.0233,42.637,0,30.6531,23.9676,47.8546,59.92,47.8546,34.7293,0,53.5608-14.0219,58.6979-37.3377h.3254a277.8773,277.8773,0,0,1-1.6311,28.3029h35.7086v-89.446C153.3129,83.6018,125.2681,60.9378,77.4135,60.9378Zm40.1908,96.6069c0,24.2124-19.1569,39.1319-50.0549,39.1319-21.6857,0-34.4029-8.234-34.4029-22.5823,0-12.4734,8.8858-19.4854,29.3475-19.4854h55.11Z"/><path class="cls-1" d="M283.9147,60.9378c-36.6859,0-57.0669,16.2233-65.6273,44.5945h-.3264l1.223-42.0667H183.4764v150.997H219.184V144.7448c0-34.4029,19.8108-53.2354,51.0342-53.2354,28.37,0,42.3931,14.0229,42.3931,38.8871v84.0661h35.7066V122.4889C348.3179,83.6018,323.6975,60.9378,283.9147,60.9378Z"/><path class="cls-1" d="M500.5237,146.3749c-9.8651-5.4615-21.2777-7.6628-48.4258-10.5159-22.9078-2.6083-38.2343-4.81-46.2235-8.9675-7.9076-3.8313-10.19-11.7389-10.19-19.4027,0-18.8316,19.81-31.55,49.73-31.55,32.2026,0,47.5281,13.3691,47.5281,41.0884h16.2233c0-36.034-19.7282-56.09-64.4033-56.09-40.11,0-66.28,19.159-66.28,47.5292,0,11.4126,4.1578,21.93,12.7182,28.0438,9.2939,6.3591,24.8653,9.8641,51.3606,12.3918,24.2124,2.2014,38.2343,4.4843,45.2463,7.9892,7.6628,4.1579,10.5159,11.17,10.5159,19.4038,0,20.1362-18.5061,32.2016-53.2345,32.2016-36.035,0-50.6271-15.0011-50.6271-40.11H378.4814c0,32.121,17.5289,55.11,66.6065,55.11,45.2453,0,70.436-17.8543,70.436-47.8546C515.5239,163.251,510.4694,152.0822,500.5237,146.3749Z"/><path class="cls-1" d="M823.4987,63.426V214.3271H806.2963c.3264-10.5169.6528-24.3756.6528-42.23h-.3264a58.2484,58.2484,0,0,1-2.8522,9.0491A62.0563,62.0563,0,0,1,778.01,212.3706c-11.3329,7.01-25.518,11.0046-41.8228,11.0046-17.0393,0-30.8164-3.913-41.3333-11.0046a44.0186,44.0186,0,0,1-7.418-5.9511c-11.4145-11.0065-17.2024-26.9033-17.2024-45.8175V78.7515h-94.322V164.515c0,26.4138,9.5377,42.0667,34.7274,42.0667a91.1445,91.1445,0,0,0,24.2144-3.5059v14.92c-4.4842,1.63-14.3483,3.8314-25.5181,3.8314-35.3822,0-50.6261-22.2559-50.6261-56.414V78.7515H531.2361V63.426h22.3355c4.4842,0,6.3611-2.2013,6.6855-9.8641L560.91,0h15.0011V63.426H687.4355v94.6493c0,29.3485,17.7717,49.73,52.9091,49.73,31.4671,0,55.8448-18.9957,63.4259-49.7295a89.2081,89.2081,0,0,0,2.5258-21.3593V63.426Z"/><path class="cls-1" d="M990.9729.04V98.5213h-.3264c-7.011-24.2124-28.9415-37.5835-62.7732-37.5835-46.7947,0-76.796,32.8545-76.796,79.3228,0,51.0342,29.6749,83.2368,75.2465,83.2368,36.0341,0,59.2682-20.381,65.3009-48.4258h.6519c-.3265,15.2459-.6519,24.0634-1.3037,39.391h17.2005V.04Zm0,144.0534c0,34.4845-22.9088,63.7514-62.4477,63.7514-36.36,0-60.2465-26.4137-60.2465-67.5838,0-36.93,24.2125-63.67,60.8983-63.67,37.2571,0,61.7959,21.0329,61.7959,59.92Z"/><path class="cls-1" d="M1050.8113,63.4656v150.997h17.2014V63.4656ZM1049.9957.04l-.1627,21.0333h18.8326L1068.8283.04Z"/><path class="cls-1" d="M1179.3739,60.9378c-46.8763,0-78.0987,31.2244-78.0987,81.6057,0,50.0569,31.2224,80.9539,78.0987,80.9539,46.551,0,78.1007-30.897,78.1007-80.9539C1257.4746,92.1622,1225.9249,60.9378,1179.3739,60.9378Zm0,146.9066c-36.033,0-60.8982-24.8642-60.8982-65.3009,0-40.8436,24.8652-65.9527,60.8982-65.9527,36.035,0,60.8993,25.1091,60.8993,65.9527C1240.2732,182.98,1215.4089,207.8444,1179.3739,207.8444Z"/><path class="cls-1" d="M.6369,300.3719,0,292.2513c4.96-.39,504.8045-38.8831,1257.4453-38.8831v5.1552C505.1468,258.5234,5.5968,299.99.6369,300.3719Z"/></g></g></svg>